<?xml version="1.0" encoding="UTF-8" standalone="no"?>
<!-- Generator: Adobe Illustrator 17.0.0, SVG Export Plug-In . SVG Version: 6.00 Build 0)  -->
<svg id="Layer_1" xmlns:rdf="http://www.w3.org/1999/02/22-rdf-syntax-ns#" xmlns="http://www.w3.org/2000/svg" enable-background="new 0 0 960 560" xml:space="preserve" height="65.743" viewBox="0 0 154.41701 65.742996" width="154.42" version="1.1" y="0px" x="0px" xmlns:cc="http://creativecommons.org/ns#" xmlns:dc="http://purl.org/dc/elements/1.1/"><metadata id="metadata43"><rdf:RDF><cc:Work rdf:about=""><dc:format>image/svg+xml</dc:format><dc:type rdf:resource="http://purl.org/dc/dcmitype/StillImage"/><dc:title/></cc:Work></rdf:RDF></metadata><g id="g3" transform="translate(-402.38 -247.08)"><path id="path5" fill="#2e434e" d="m545.43 312.59v-13.102h2.256v6.588l6.108-6.588h2.77l-5.338 5.634 5.576 7.468h-2.733l-4.384-5.896-2 2.096v3.8h-2.255zm-140.8 0h-2.248v-14.282h5.448c3.233 0 5.246 1.872 5.246 4.697v0.041c0 3.143-2.464 4.8-5.528 4.8h-2.918v4.744zm0-12.21v5.415h2.998c1.922 0 3.159-1.106 3.159-2.687v-0.041c0-1.771-1.264-2.687-3.159-2.687h-2.998zm10.737 12.21v-13.102h5.723c1.615 0 2.88 0.487 3.706 1.31 0.679 0.711 1.064 1.685 1.064 2.826 0 2.19-1.266 3.481-3.063 4.005l3.467 4.96h-2.66l-3.155-4.567h-2.825v4.567h-2.257zm2.257-6.607h3.302c1.614 0 2.641-0.861 2.641-2.19 0-1.441-0.991-2.209-2.66-2.209h-3.283v4.399zm16.946 6.832c-3.944 0-6.695-3.051-6.695-6.738 0-3.724 2.788-6.813 6.732-6.813s6.695 3.051 6.695 6.738c0 3.724-2.788 6.813-6.732 6.813zm0.037-2.115c2.55 0 4.329-2.078 4.329-4.624 0-2.583-1.816-4.698-4.366-4.698s-4.329 2.077-4.329 4.623c0.001 2.583 1.817 4.699 4.366 4.699zm13.48 1.984-5.338-13.196h2.495l3.87 10.07 3.852-10.07h2.44l-5.338 13.196h-1.981zm9.466-0.094v-13.102h2.256v13.102h-2.256zm5.502 0v-13.102h4.787c4.035 0 6.824 2.826 6.824 6.513 0 3.725-2.788 6.589-6.824 6.589h-4.787zm2.256-2.096h2.531c2.696 0 4.457-1.853 4.457-4.417 0-2.602-1.761-4.492-4.457-4.492h-2.531v8.909zm17.169 2.302c-3.338 0-5.466-1.965-5.466-5.765v-7.543h2.256v7.449c0 2.433 1.229 3.743 3.247 3.743 2 0 3.228-1.235 3.228-3.65v-7.543h2.256v7.431c0 3.913-2.165 5.878-5.521 5.878zm12.93-0.019c-1.963 0-3.815-0.693-5.356-2.096l1.357-1.647c1.229 1.085 2.458 1.703 4.054 1.703 1.394 0 2.275-0.655 2.275-1.647 0-0.973-0.513-1.479-2.898-2.04-2.733-0.674-4.274-1.497-4.274-3.912 0-2.284 1.834-3.837 4.384-3.837 1.871 0 3.357 0.58 4.659 1.647l-1.21 1.74c-1.156-0.88-2.311-1.347-3.485-1.347-1.321 0-2.091 0.693-2.091 1.553 0 1.048 0.587 1.498 3.045 2.096 2.715 0.674 4.127 1.666 4.127 3.837-0.001 2.49-1.891 3.95-4.587 3.95zm13.754-0.191h-6.415v-14.166h6.214c1.592 0 2.828 0.447 3.606 1.241 0.603 0.615 0.914 1.367 0.914 2.305v0.041c0 1.664-0.843 2.517-2.189 3.231 1.727 0.602 2.975 1.422 2.975 3.475v0.041c0 2.474-1.988 3.832-5.105 3.832zm-4.208-12.156v4.057h3.502c1.614 0 2.777-0.655 2.777-2.07v-0.041c0-1.224-0.972-1.946-2.595-1.946h-3.684zm0 5.965v4.18h4.228c1.717 0 2.837-0.697 2.837-2.09v-0.041c0-1.314-1.042-2.049-3.018-2.049h-4.047zm10.763 6.195 5.65-13.196h2.091l5.65 13.196h-2.384l-1.302-3.163h-6.072l-1.32 3.163h-2.313zm4.458-5.203h4.421l-2.22-5.241-2.201 5.241zm10.947 5.203v-13.102h2.091l6.878 9.059v-9.059h2.22v13.102h-1.889l-7.081-9.321v9.321h-2.219z"/><path id="path7" d="m461.4 259.9 3.105-5.378h30.25l0.776 1.343 2.329 4.035h-36.46zm4.293-7.436 3.108-5.383h21.657l3.108 5.383h-27.873zm24.766 29.754h-17.693c-0.342 0-0.63 0.177-0.787 0.441l-2.155 3.733h-6.148l5.071-8.783c0.23-0.399 0.848-0.722 1.379-0.722l23.407 0.006-3.074 5.325zm7.381-12.784-3.119 5.402h-26.305c-0.336 0-0.617 0.166-0.777 0.417l-2.125 3.68h-6.148l5.071-8.782c0.23-0.399 0.848-0.722 1.379-0.722l32.024 0.005zm-33.769-2.057c-0.33 0-0.618 0.177-0.775 0.441l-2.1 3.637h-6.148l5.07-8.781c0.23-0.399 0.848-0.723 1.379-0.723l37.55 0.008 1.554 2.691-1.574 2.726h-34.925l-0.031 0.001z" fill-rule="evenodd" clip-rule="evenodd" fill="#fdb813"/></g></svg>
